<svg width="36" height="36" viewBox="0 0 36 36" fill="none" xmlns="http://www.w3.org/2000/svg">
<path d="M27 6H19.5C19.5 6.825 18.825 7.5 18 7.5C17.175 7.5 16.5 6.825 16.5 6H9C7.35 6 6 7.35 6 9V33C6 34.65 7.35 36 9 36H27C28.65 36 30 34.65 30 33V9C30 7.35 28.65 6 27 6Z" fill="#347694"/>
<path d="M27 33.75H9C8.55 33.75 8.25 33.45 8.25 33V9C8.25 8.55 8.55 8.25 9 8.25H27C27.45 8.25 27.75 8.55 27.75 9V33C27.75 33.45 27.45 33.75 27 33.75Z" fill="white"/>
<path d="M19.5 6C19.5 6.825 18.825 7.5 18 7.5C17.175 7.5 16.5 6.825 16.5 6H11.25V9C11.25 9.825 11.925 10.5 12.75 10.5H23.25C24.075 10.5 24.75 9.825 24.75 9V6H19.5Z" fill="#347694"/>
<path d="M18 3C16.35 3 15 4.35 15 6C15 7.65 16.35 9 18 9C19.65 9 21 7.65 21 6C21 4.35 19.65 3 18 3ZM18 7.5C17.175 7.5 16.5 6.825 16.5 6C16.5 5.175 17.175 4.5 18 4.5C18.825 4.5 19.5 5.175 19.5 6C19.5 6.825 18.825 7.5 18 7.5Z" fill="#347694"/>
<path d="M22.9508 16.9502L16.2008 23.7002L13.0508 20.4752L11.1758 22.3502L16.2758 27.3752L24.8258 18.8252L22.9508 16.9502Z" fill="#347694"/>
</svg>
