<svg width="36" height="36" viewBox="0 0 36 36" fill="none" xmlns="http://www.w3.org/2000/svg">
<path d="M19.498 30.8526C17.944 30.8526 16.4044 30.7892 14.8791 30.6622C13.3528 30.5342 11.8264 30.3538 10.3 30.1209C9.62675 30.0105 9.06002 29.7081 8.59979 29.2137C8.13955 28.7214 7.90944 28.1359 7.90944 27.4572V26.5086C6.61042 26.1863 5.55862 25.5059 4.75404 24.4673C3.95057 23.4299 3.54883 22.2478 3.54883 20.9212C3.54883 19.6222 3.95057 18.454 4.75404 17.4165C5.55862 16.378 6.61042 15.686 7.90944 15.3405V13.8174C7.90944 13.0625 8.19363 12.4174 8.76202 11.8821C9.32931 11.348 9.99372 11.1018 10.7553 11.1438C11.3645 11.1857 11.9737 11.2564 12.5829 11.3557C13.1922 11.455 13.8047 11.5212 14.4206 11.5544C15.2549 11.6228 16.0937 11.6691 16.9369 11.6934C17.7823 11.7177 18.636 11.7298 19.498 11.7298C20.2264 11.7298 20.9548 11.7216 21.6833 11.705C22.4106 11.6873 23.1412 11.6482 23.8752 11.5875C24.6124 11.5323 25.3315 11.4605 26.0323 11.3722C26.7342 11.284 27.4533 11.2078 28.1894 11.1438C28.951 11.0809 29.6242 11.3149 30.2091 11.8457C30.7941 12.3766 31.0866 13.0349 31.0866 13.8207V15.3422C32.379 15.6854 33.4291 16.3763 34.237 17.4149C35.0449 18.4523 35.4488 19.6205 35.4488 20.9196C35.4488 22.2462 35.0449 23.4271 34.237 24.4624C33.4291 25.4965 32.379 26.1753 31.0866 26.4986V27.4456C31.0866 28.1254 30.8493 28.712 30.3747 29.2054C29.9001 29.6987 29.3262 30.0039 28.653 30.1209C27.1277 30.3604 25.6074 30.5425 24.092 30.6672C22.5767 30.7919 21.0453 30.8537 19.498 30.8526ZM19.498 29.1971C21.0056 29.1971 22.5022 29.1336 23.9877 29.0067C25.4733 28.8787 26.9693 28.6983 28.4758 28.4654C28.7517 28.4223 28.978 28.307 29.1546 28.1194C29.3323 27.9318 29.4244 27.7072 29.4311 27.4456V13.7562C29.4311 13.4582 29.3196 13.2038 29.0966 12.993C28.8737 12.78 28.6138 12.695 28.3169 12.738C26.8523 12.9654 25.3822 13.1304 23.9066 13.233C22.431 13.3357 20.9615 13.387 19.498 13.387C18.0058 13.387 16.5219 13.3357 15.0463 13.233C13.5707 13.1304 12.1045 12.9648 10.6476 12.7364C10.3441 12.6944 10.0875 12.7811 9.87784 12.9963C9.66924 13.2126 9.56495 13.4659 9.56495 13.7562V27.4472C9.56495 27.7011 9.64993 27.9235 9.8199 28.1144C9.98986 28.3053 10.2128 28.4223 10.4887 28.4654C11.9952 28.6983 13.4896 28.8782 14.9718 29.0051C16.4541 29.132 17.9628 29.196 19.498 29.1971ZM19.498 25.8861C20.6635 25.8861 21.8113 25.8226 22.9415 25.6957C24.0716 25.5677 25.2056 25.3414 26.3435 25.017C26.5576 24.943 26.7221 24.8133 26.8369 24.6279C26.9517 24.4425 26.9715 24.2355 26.8965 24.0071C26.8225 23.7996 26.6879 23.6368 26.4925 23.5187C26.2972 23.4006 26.0952 23.3785 25.8866 23.4525C24.8458 23.7505 23.788 23.9547 22.713 24.065C21.6391 24.1754 20.5675 24.2306 19.498 24.2306C18.4076 24.2306 17.3287 24.1715 16.2615 24.0534C15.1953 23.9354 14.1413 23.7245 13.0995 23.421C12.8699 23.3471 12.663 23.373 12.4786 23.4988C12.2932 23.6236 12.1635 23.7902 12.0896 23.9988C12.0157 24.2273 12.0377 24.4342 12.1558 24.6196C12.2728 24.8039 12.4461 24.9331 12.6756 25.007C13.7705 25.3447 14.8885 25.576 16.0297 25.7007C17.1709 25.8254 18.327 25.8872 19.498 25.8861ZM7.90944 24.762V17.0871C7.08831 17.3895 6.43162 17.89 5.93938 18.5886C5.44935 19.2872 5.20434 20.0642 5.20434 20.9196C5.20434 21.8025 5.44935 22.5878 5.93938 23.2754C6.43162 23.9629 7.08831 24.4585 7.90944 24.762ZM31.0866 24.762C31.8812 24.4585 32.5307 23.9629 33.0351 23.2754C33.5395 22.5878 33.7922 21.8025 33.7933 20.9196C33.7933 20.0642 33.5406 19.2872 33.0351 18.5886C32.5296 17.89 31.8801 17.3889 31.0866 17.0854V24.762ZM19.498 19.2641C20.6635 19.2641 21.8113 19.2006 22.9415 19.0737C24.0716 18.9456 25.2056 18.7194 26.3435 18.3949C26.5576 18.321 26.7221 18.1913 26.8369 18.0059C26.9517 17.8205 26.9715 17.6135 26.8965 17.3851C26.8225 17.1776 26.6879 17.0148 26.4925 16.8967C26.2972 16.7786 26.0952 16.7565 25.8866 16.8305C24.8458 17.1285 23.788 17.3326 22.713 17.443C21.6391 17.5534 20.5675 17.6085 19.498 17.6085C18.4076 17.6085 17.3287 17.5478 16.2615 17.4264C15.1953 17.305 14.1413 17.0959 13.0995 16.799C12.8699 16.7471 12.663 16.778 12.4786 16.8917C12.2932 17.0065 12.1635 17.1709 12.0896 17.3851C12.0157 17.6146 12.0306 17.8216 12.1343 18.0059C12.238 18.1913 12.408 18.321 12.6442 18.3949C13.76 18.7194 14.8885 18.9456 16.0297 19.0737C17.1709 19.2017 18.327 19.2652 19.498 19.2641Z" fill="#347694"/>
</svg>
