<svg width="20" height="20" viewBox="0 0 20 20" fill="none" xmlns="http://www.w3.org/2000/svg">
<path d="M17.6034 0.266328C17.923 -0.0886945 18.4409 -0.0886945 18.7604 0.266328C19.0799 0.62135 19.0799 1.19682 18.7604 1.55184L13.8514 7.00638C13.5319 7.36141 13.014 7.36141 12.6945 7.00638C12.375 6.65136 12.375 6.07589 12.6945 5.72087L17.6034 0.266328Z" fill="white"/>
<path d="M17.3638 6.36364V1.81818H13.273C12.8211 1.81818 12.4548 1.41117 12.4548 0.909091C12.4548 0.407014 12.8211 0 13.273 0H18.182C18.6338 0 19.0001 0.407014 19.0001 0.909091V6.36364C19.0001 6.86571 18.6338 7.27273 18.182 7.27273C17.7301 7.27273 17.3638 6.86571 17.3638 6.36364Z" fill="white"/>
<path d="M6.72714 2.72727C6.72714 2.48617 6.64088 2.255 6.48744 2.08452C6.33401 1.91403 6.12597 1.81818 5.90898 1.81818H3.45449C3.2375 1.81818 3.02946 1.91403 2.87602 2.08452C2.72259 2.255 2.63633 2.48617 2.63633 2.72727C2.63633 6.82607 4.10196 10.7567 6.71036 13.655C9.31876 16.5533 12.8563 18.1818 16.5451 18.1818C16.7621 18.1818 16.9701 18.086 17.1236 17.9155C17.277 17.745 17.3633 17.5138 17.3633 17.2727V14.5455C17.3633 14.3043 17.277 14.0732 17.1236 13.9027C16.9701 13.7322 16.7621 13.6364 16.5451 13.6364H14.0906C13.9636 13.6364 13.8383 13.6691 13.7247 13.7322C13.6111 13.7954 13.5124 13.8875 13.4362 14.0004L13.4322 14.0066L13.1414 14.4274C12.9162 14.7561 12.5976 14.9904 12.237 15.0906C11.8762 15.1907 11.4954 15.1511 11.1575 14.9787C11.1512 14.9755 11.1446 14.9723 11.1383 14.9689C8.70359 13.6412 6.7331 11.4545 5.53505 8.75089L5.53345 8.74734C5.36791 8.36995 5.32499 7.9405 5.41201 7.53196C5.4991 7.12333 5.71089 6.76055 6.01125 6.50568L6.01684 6.50124L6.39956 6.18164C6.50117 6.09696 6.58405 5.98738 6.64085 5.86115C6.69765 5.73492 6.72714 5.59568 6.72714 5.45455V2.72727ZM8.36347 5.45455C8.36347 5.87794 8.275 6.29566 8.10459 6.67436C7.93418 7.05306 7.68635 7.38268 7.38151 7.63672L7.00359 7.95011C8.0388 10.2851 9.73932 12.1742 11.8399 13.3256L12.1267 12.9093L12.2162 12.785C12.4307 12.503 12.6947 12.2715 12.9928 12.1058C13.3336 11.9165 13.7096 11.8182 14.0906 11.8182H16.5451C17.1961 11.8182 17.8202 12.1057 18.2805 12.6172C18.7408 13.1287 18.9996 13.8221 18.9996 14.5455V17.2727C18.9996 17.996 18.7408 18.6895 18.2805 19.201C17.8202 19.7125 17.1961 20 16.5451 20C12.4223 20 8.4687 18.1798 5.55343 14.9405C2.63816 11.7013 1 7.30828 1 2.72727C1 2.00396 1.25878 1.31047 1.71909 0.799006C2.17939 0.287543 2.80352 0 3.45449 0H5.90898C6.55995 0 7.18407 0.287543 7.64438 0.799006C8.10468 1.31047 8.36347 2.00395 8.36347 2.72727V5.45455Z" fill="white"/>
</svg>
