<svg preserveAspectRatio="none" width="100%" height="100%" overflow="visible" style="display: block;" viewBox="0 0 21 22" fill="none" xmlns="http://www.w3.org/2000/svg">
<g id="navi_icon02">
<path id="Vector" d="M7 20C8.78 20 9.67 17.84 8.42 16.58C7.16 15.33 5 16.22 5 18C5 18.5304 5.21071 19.0391 5.58579 19.4142C5.96086 19.7893 6.46957 20 7 20ZM5.5 15H8.5C9.03043 15 9.53914 14.7893 9.91421 14.4142C10.2893 14.0391 10.5 13.5304 10.5 13V7.5H9V0H5V7.5H3.5V13C3.5 13.5304 3.71071 14.0391 4.08579 14.4142C4.46086 14.7893 4.96957 15 5.5 15ZM21 14H15V12H21M21 11H18V9H21M21 20H15V18H21M21 17H18V15H21M21 8H15V6H21M21 2H15V0H21M21 5H18V3H21" fill="var(--fill-0, white)"/>
</g>
</svg>
