<svg width="25" height="25" viewBox="0 0 25 25" fill="none" xmlns="http://www.w3.org/2000/svg">
<path d="M12.5 14.5833C12.7061 14.5833 12.9074 14.5222 13.0787 14.4078C13.25 14.2933 13.3836 14.1306 13.4624 13.9403C13.5412 13.75 13.5619 13.5405 13.5217 13.3384C13.4815 13.1364 13.3823 12.9508 13.2366 12.8051C13.0909 12.6594 12.9053 12.5602 12.7032 12.52C12.5012 12.4798 12.2917 12.5005 12.1014 12.5793C11.9111 12.6581 11.7484 12.7916 11.6339 12.9629C11.5195 13.1342 11.4584 13.3356 11.4584 13.5417C11.4584 13.8179 11.5681 14.0829 11.7635 14.2782C11.9588 14.4736 12.2238 14.5833 12.5 14.5833ZM17.7084 14.5833C17.9144 14.5833 18.1158 14.5222 18.2871 14.4078C18.4584 14.2933 18.5919 14.1306 18.6707 13.9403C18.7496 13.75 18.7702 13.5405 18.73 13.3384C18.6898 13.1364 18.5906 12.9508 18.4449 12.8051C18.2993 12.6594 18.1136 12.5602 17.9116 12.52C17.7095 12.4798 17.5001 12.5005 17.3097 12.5793C17.1194 12.6581 16.9567 12.7916 16.8422 12.9629C16.7278 13.1342 16.6667 13.3356 16.6667 13.5417C16.6667 13.8179 16.7764 14.0829 16.9718 14.2782C17.1671 14.4736 17.4321 14.5833 17.7084 14.5833ZM12.5 18.75C12.7061 18.75 12.9074 18.6889 13.0787 18.5744C13.25 18.46 13.3836 18.2973 13.4624 18.107C13.5412 17.9166 13.5619 17.7072 13.5217 17.5051C13.4815 17.3031 13.3823 17.1174 13.2366 16.9718C13.0909 16.8261 12.9053 16.7269 12.7032 16.6867C12.5012 16.6465 12.2917 16.6671 12.1014 16.746C11.9111 16.8248 11.7484 16.9583 11.6339 17.1296C11.5195 17.3009 11.4584 17.5023 11.4584 17.7083C11.4584 17.9846 11.5681 18.2496 11.7635 18.4449C11.9588 18.6403 12.2238 18.75 12.5 18.75ZM17.7084 18.75C17.9144 18.75 18.1158 18.6889 18.2871 18.5744C18.4584 18.46 18.5919 18.2973 18.6707 18.107C18.7496 17.9166 18.7702 17.7072 18.73 17.5051C18.6898 17.3031 18.5906 17.1174 18.4449 16.9718C18.2993 16.8261 18.1136 16.7269 17.9116 16.6867C17.7095 16.6465 17.5001 16.6671 17.3097 16.746C17.1194 16.8248 16.9567 16.9583 16.8422 17.1296C16.7278 17.3009 16.6667 17.5023 16.6667 17.7083C16.6667 17.9846 16.7764 18.2496 16.9718 18.4449C17.1671 18.6403 17.4321 18.75 17.7084 18.75ZM7.29169 14.5833C7.49772 14.5833 7.69911 14.5222 7.87041 14.4078C8.04171 14.2933 8.17523 14.1306 8.25407 13.9403C8.33291 13.75 8.35354 13.5405 8.31335 13.3384C8.27315 13.1364 8.17394 12.9508 8.02826 12.8051C7.88258 12.6594 7.69698 12.5602 7.49491 12.52C7.29285 12.4798 7.08341 12.5005 6.89307 12.5793C6.70273 12.6581 6.54004 12.7916 6.42558 12.9629C6.31112 13.1342 6.25003 13.3356 6.25003 13.5417C6.25003 13.8179 6.35978 14.0829 6.55513 14.2782C6.75048 14.4736 7.01543 14.5833 7.29169 14.5833ZM19.7917 4.16667H18.75V3.125C18.75 2.84873 18.6403 2.58378 18.4449 2.38843C18.2496 2.19308 17.9846 2.08333 17.7084 2.08333C17.4321 2.08333 17.1671 2.19308 16.9718 2.38843C16.7764 2.58378 16.6667 2.84873 16.6667 3.125V4.16667H8.33336V3.125C8.33336 2.84873 8.22361 2.58378 8.02826 2.38843C7.83291 2.19308 7.56796 2.08333 7.29169 2.08333C7.01543 2.08333 6.75048 2.19308 6.55513 2.38843C6.35978 2.58378 6.25003 2.84873 6.25003 3.125V4.16667H5.20836C4.37956 4.16667 3.5847 4.49591 2.99865 5.08196C2.4126 5.66801 2.08336 6.46287 2.08336 7.29167V19.7917C2.08336 20.6205 2.4126 21.4153 2.99865 22.0014C3.5847 22.5874 4.37956 22.9167 5.20836 22.9167H19.7917C20.6205 22.9167 21.4154 22.5874 22.0014 22.0014C22.5875 21.4153 22.9167 20.6205 22.9167 19.7917V7.29167C22.9167 6.46287 22.5875 5.66801 22.0014 5.08196C21.4154 4.49591 20.6205 4.16667 19.7917 4.16667ZM20.8334 19.7917C20.8334 20.0679 20.7236 20.3329 20.5283 20.5282C20.3329 20.7236 20.068 20.8333 19.7917 20.8333H5.20836C4.93209 20.8333 4.66714 20.7236 4.47179 20.5282C4.27644 20.3329 4.16669 20.0679 4.16669 19.7917V10.4167H20.8334V19.7917ZM20.8334 8.33333H4.16669V7.29167C4.16669 7.0154 4.27644 6.75045 4.47179 6.5551C4.66714 6.35975 4.93209 6.25 5.20836 6.25H19.7917C20.068 6.25 20.3329 6.35975 20.5283 6.5551C20.7236 6.75045 20.8334 7.0154 20.8334 7.29167V8.33333ZM7.29169 18.75C7.49772 18.75 7.69911 18.6889 7.87041 18.5744C8.04171 18.46 8.17523 18.2973 8.25407 18.107C8.33291 17.9166 8.35354 17.7072 8.31335 17.5051C8.27315 17.3031 8.17394 17.1174 8.02826 16.9718C7.88258 16.8261 7.69698 16.7269 7.49491 16.6867C7.29285 16.6465 7.08341 16.6671 6.89307 16.746C6.70273 16.8248 6.54004 16.9583 6.42558 17.1296C6.31112 17.3009 6.25003 17.5023 6.25003 17.7083C6.25003 17.9846 6.35978 18.2496 6.55513 18.4449C6.75048 18.6403 7.01543 18.75 7.29169 18.75Z" fill="white"/>
</svg>
