<svg width="36" height="36" viewBox="0 0 36 36" fill="none" xmlns="http://www.w3.org/2000/svg">
<path d="M19.498 30.8516C17.944 30.8516 16.4044 30.7882 14.8791 30.6613C13.3528 30.5332 11.8264 30.3528 10.3 30.1199C9.62675 30.0095 9.06002 29.7071 8.59979 29.2127C8.13955 28.7205 7.90944 28.135 7.90944 27.4562V26.5076C6.61042 26.1853 5.55862 25.5049 4.75404 24.4663C3.95057 23.4289 3.54883 22.2469 3.54883 20.9202C3.54883 19.6212 3.95057 18.453 4.75404 17.4155C5.55862 16.377 6.61042 15.685 7.90944 15.3395V13.8165C7.90944 13.0615 8.19363 12.4164 8.76202 11.8812C9.32931 11.347 9.99372 11.1009 10.7553 11.1428C11.3645 11.1847 11.9737 11.2554 12.5829 11.3547C13.1922 11.454 13.8047 11.5203 14.4206 11.5534C15.2549 11.6218 16.0937 11.6682 16.9369 11.6924C17.7823 11.7167 18.636 11.7289 19.498 11.7289C20.2264 11.7289 20.9548 11.7206 21.6833 11.704C22.4106 11.6864 23.1412 11.6472 23.8752 11.5865C24.6124 11.5313 25.3315 11.4596 26.0323 11.3713C26.7342 11.283 27.4533 11.2068 28.1894 11.1428C28.951 11.0799 29.6242 11.3139 30.2091 11.8447C30.7941 12.3756 31.0866 13.034 31.0866 13.8198V15.3412C32.379 15.6844 33.4291 16.3753 34.237 17.4139C35.0449 18.4513 35.4488 19.6196 35.4488 20.9186C35.4488 22.2452 35.0449 23.4261 34.237 24.4614C33.4291 25.4955 32.379 26.1743 31.0866 26.4977V27.4446C31.0866 28.1245 30.8493 28.7111 30.3747 29.2044C29.9001 29.6978 29.3262 30.0029 28.653 30.1199C27.1277 30.3594 25.6074 30.5415 24.092 30.6662C22.5767 30.7909 21.0453 30.8527 19.498 30.8516ZM19.498 29.1961C21.0056 29.1961 22.5022 29.1327 23.9877 29.0058C25.4733 28.8777 26.9693 28.6973 28.4758 28.4644C28.7517 28.4214 28.978 28.306 29.1546 28.1184C29.3323 27.9308 29.4244 27.7062 29.4311 27.4446V13.7552C29.4311 13.4572 29.3196 13.2028 29.0966 12.992C28.8737 12.779 28.6138 12.694 28.3169 12.7371C26.8523 12.9644 25.3822 13.1294 23.9066 13.2321C22.431 13.3347 20.9615 13.386 19.498 13.386C18.0058 13.386 16.5219 13.3347 15.0463 13.2321C13.5707 13.1294 12.1045 12.9639 10.6476 12.7354C10.3441 12.6935 10.0875 12.7801 9.87784 12.9953C9.66924 13.2116 9.56495 13.4649 9.56495 13.7552V27.4463C9.56495 27.7001 9.64993 27.9225 9.8199 28.1134C9.98986 28.3044 10.2128 28.4214 10.4887 28.4644C11.9952 28.6973 13.4896 28.8772 14.9718 29.0041C16.4541 29.131 17.9628 29.195 19.498 29.1961ZM19.498 25.8851C20.6635 25.8851 21.8113 25.8217 22.9415 25.6947C24.0716 25.5667 25.2056 25.3405 26.3435 25.016C26.5576 24.942 26.7221 24.8123 26.8369 24.6269C26.9517 24.4415 26.9715 24.2346 26.8965 24.0061C26.8225 23.7986 26.6879 23.6358 26.4925 23.5177C26.2972 23.3996 26.0952 23.3776 25.8866 23.4515C24.8458 23.7495 23.788 23.9537 22.713 24.0641C21.6391 24.1744 20.5675 24.2296 19.498 24.2296C18.4076 24.2296 17.3287 24.1706 16.2615 24.0525C15.1953 23.9344 14.1413 23.7236 13.0995 23.4201C12.8699 23.3461 12.663 23.3721 12.4786 23.4979C12.2932 23.6226 12.1635 23.7892 12.0896 23.9978C12.0157 24.2263 12.0377 24.4332 12.1558 24.6187C12.2728 24.803 12.4461 24.9321 12.6756 25.006C13.7705 25.3438 14.8885 25.575 16.0297 25.6997C17.1709 25.8244 18.327 25.8862 19.498 25.8851ZM7.90944 24.761V17.0861C7.08831 17.3885 6.43162 17.889 5.93938 18.5876C5.44935 19.2863 5.20434 20.0632 5.20434 20.9186C5.20434 21.8015 5.44935 22.5868 5.93938 23.2744C6.43162 23.962 7.08831 24.4575 7.90944 24.761ZM31.0866 24.761C31.8812 24.4575 32.5307 23.962 33.0351 23.2744C33.5395 22.5868 33.7922 21.8015 33.7933 20.9186C33.7933 20.0632 33.5406 19.2863 33.0351 18.5876C32.5296 17.889 31.8801 17.3879 31.0866 17.0844V24.761ZM19.498 19.2631C20.6635 19.2631 21.8113 19.1996 22.9415 19.0727C24.0716 18.9447 25.2056 18.7184 26.3435 18.3939C26.5576 18.32 26.7221 18.1903 26.8369 18.0049C26.9517 17.8195 26.9715 17.6125 26.8965 17.3841C26.8225 17.1766 26.6879 17.0138 26.4925 16.8957C26.2972 16.7776 26.0952 16.7555 25.8866 16.8295C24.8458 17.1275 23.788 17.3317 22.713 17.442C21.6391 17.5524 20.5675 17.6076 19.498 17.6076C18.4076 17.6076 17.3287 17.5469 16.2615 17.4255C15.1953 17.3041 14.1413 17.0949 13.0995 16.798C12.8699 16.7462 12.663 16.7771 12.4786 16.8907C12.2932 17.0055 12.1635 17.17 12.0896 17.3841C12.0157 17.6136 12.0306 17.8206 12.1343 18.0049C12.238 18.1903 12.408 18.32 12.6442 18.3939C13.76 18.7184 14.8885 18.9447 16.0297 19.0727C17.1709 19.2007 18.327 19.2642 19.498 19.2631Z" fill="#347694"/>
</svg>
