<svg width="36" height="36" viewBox="0 0 36 36" fill="none" xmlns="http://www.w3.org/2000/svg">
<path d="M27 4H19.5C19.5 4.825 18.825 5.5 18 5.5C17.175 5.5 16.5 4.825 16.5 4H9C7.35 4 6 5.35 6 7V31C6 32.65 7.35 34 9 34H27C28.65 34 30 32.65 30 31V7C30 5.35 28.65 4 27 4Z" fill="#347694"/>
<path d="M27 31.75H9C8.55 31.75 8.25 31.45 8.25 31V7C8.25 6.55 8.55 6.25 9 6.25H27C27.45 6.25 27.75 6.55 27.75 7V31C27.75 31.45 27.45 31.75 27 31.75Z" fill="white"/>
<path d="M19.5 4C19.5 4.825 18.825 5.5 18 5.5C17.175 5.5 16.5 4.825 16.5 4H11.25V7C11.25 7.825 11.925 8.5 12.75 8.5H23.25C24.075 8.5 24.75 7.825 24.75 7V4H19.5Z" fill="#347694"/>
<path d="M18 1C16.35 1 15 2.35 15 4C15 5.65 16.35 7 18 7C19.65 7 21 5.65 21 4C21 2.35 19.65 1 18 1ZM18 5.5C17.175 5.5 16.5 4.825 16.5 4C16.5 3.175 17.175 2.5 18 2.5C18.825 2.5 19.5 3.175 19.5 4C19.5 4.825 18.825 5.5 18 5.5Z" fill="#347694"/>
<path d="M22.9508 14.9502L16.2008 21.7002L13.0508 18.4752L11.1758 20.3502L16.2758 25.3752L24.8258 16.8252L22.9508 14.9502Z" fill="#347694"/>
</svg>
