<svg width="24" height="24" viewBox="0 0 24 24" fill="none" xmlns="http://www.w3.org/2000/svg">
<circle cx="12" cy="12" r="12" fill="#347694"/>
<path d="M11.7095 14.6627C11.5465 14.6627 11.3998 14.6034 11.2693 14.4848C11.1471 14.3662 11.0778 14.2222 11.0615 14.0528L11.0003 12.7822C10.984 12.3587 11.0452 12.0156 11.1837 11.753C11.3223 11.4904 11.6361 11.266 12.1252 11.0796C12.5084 10.9356 12.7896 10.7408 12.9689 10.4951C13.1564 10.2495 13.2501 9.93185 13.2501 9.5422C13.2501 9.04244 13.1116 8.64432 12.8344 8.34785C12.5573 8.05138 12.1823 7.90315 11.7095 7.90315C11.3101 7.90315 10.9637 8.02597 10.6702 8.27162C10.3849 8.50879 10.1974 8.8222 10.1077 9.21185C10.0507 9.44056 9.92026 9.6142 9.71647 9.73279C9.51268 9.84291 9.29667 9.86832 9.06843 9.80903C8.84834 9.74126 8.68531 9.60997 8.57934 9.41515C8.47337 9.21185 8.44484 8.99162 8.49375 8.75444C8.59972 8.29703 8.79943 7.89044 9.09288 7.53467C9.39449 7.17044 9.76538 6.88244 10.2056 6.67067C10.6539 6.45891 11.1552 6.35303 11.7095 6.35303C12.3453 6.35303 12.9078 6.48009 13.3969 6.7342C13.886 6.98832 14.2691 7.35679 14.5462 7.83962C14.8315 8.31397 14.9742 8.8815 14.9742 9.5422C14.9742 10.2283 14.7785 10.7959 14.3873 11.2448C14.0042 11.6937 13.5069 12.0283 12.8956 12.2486C12.6918 12.3248 12.5573 12.4095 12.4921 12.5027C12.4268 12.5874 12.3902 12.7399 12.382 12.9601L12.3453 14.0528C12.3372 14.2222 12.2679 14.3662 12.1375 14.4848C12.0152 14.6034 11.8725 14.6627 11.7095 14.6627ZM11.7095 17.5596C11.4242 17.5596 11.1797 17.4537 10.9759 17.242C10.7721 17.0302 10.6702 16.7761 10.6702 16.4796C10.6702 16.1831 10.7721 15.929 10.9759 15.7173C11.1797 15.5055 11.4242 15.3996 11.7095 15.3996C11.9948 15.3996 12.2394 15.5055 12.4431 15.7173C12.6469 15.929 12.7488 16.1831 12.7488 16.4796C12.7488 16.7761 12.6469 17.0302 12.4431 17.242C12.2394 17.4537 11.9948 17.5596 11.7095 17.5596Z" fill="white"/>
</svg>
