<svg preserveAspectRatio="none" width="100%" height="100%" overflow="visible" style="display: block;" viewBox="0 0 19.391 20" fill="none" xmlns="http://www.w3.org/2000/svg">
<g id="Group 1121">
<path id="Vector (Stroke)" d="M17.8864 0.266267C18.2306 -0.0887555 18.7886 -0.0887555 19.1328 0.266267C19.477 0.621289 19.477 1.19676 19.1328 1.55178L13.8445 7.00632C13.5003 7.36135 12.9424 7.36135 12.5982 7.00632C12.254 6.6513 12.254 6.07583 12.5982 5.72081L17.8864 0.266267Z" fill="var(--fill-0, white)"/>
<path id="Vector (Stroke)_2" d="M17.6283 6.36364V1.81818H13.2214C12.7346 1.81818 12.34 1.41117 12.34 0.909091C12.34 0.407014 12.7346 1.35465e-08 13.2214 1.35465e-08H18.5097C18.9964 1.35465e-08 19.391 0.407014 19.391 0.909091V6.36364C19.391 6.86571 18.9964 7.27273 18.5097 7.27273C18.0229 7.27273 17.6283 6.86571 17.6283 6.36364Z" fill="var(--fill-0, white)"/>
<path id="Vector (Stroke)_3" d="M6.16965 2.72727C6.16965 2.48617 6.07672 2.255 5.91143 2.08452C5.74614 1.91403 5.52203 1.81818 5.28827 1.81818H2.64414C2.41038 1.81818 2.18626 1.91403 2.02097 2.08452C1.85568 2.255 1.76276 2.48617 1.76276 2.72727C1.76276 6.82607 3.34164 10.7567 6.15157 13.655C8.96151 16.5533 12.7723 18.1818 16.7462 18.1818C16.9799 18.1818 17.2041 18.086 17.3694 17.9155C17.5346 17.745 17.6276 17.5138 17.6276 17.2727V14.5455C17.6276 14.3043 17.5346 14.0732 17.3694 13.9027C17.2041 13.7322 16.9799 13.6364 16.7462 13.6364H14.1021C13.9652 13.6364 13.8302 13.6691 13.7078 13.7322C13.5855 13.7954 13.4792 13.8875 13.3971 14.0004L13.3928 14.0066L13.0795 14.4274C12.8369 14.7561 12.4937 14.9904 12.1052 15.0906C11.7166 15.1907 11.3064 15.1511 10.9423 14.9787C10.9355 14.9755 10.9284 14.9723 10.9217 14.9689C8.29881 13.6412 6.17607 11.4545 4.88545 8.75089L4.88373 8.74734C4.7054 8.36995 4.65916 7.9405 4.7529 7.53196C4.84672 7.12333 5.07488 6.76055 5.39844 6.50568L5.40447 6.50124L5.81675 6.18164C5.92622 6.09696 6.0155 5.98738 6.07669 5.86115C6.13788 5.73492 6.16965 5.59568 6.16965 5.45455V2.72727ZM7.93241 5.45455C7.93241 5.87794 7.83711 6.29566 7.65353 6.67436C7.46996 7.05306 7.20297 7.38268 6.87458 7.63672L6.46746 7.95011C7.58265 10.2851 9.41457 12.1742 11.6774 13.3256L11.9864 12.9093L12.0828 12.785C12.3139 12.503 12.5983 12.2715 12.9194 12.1058C13.2866 11.9165 13.6916 11.8182 14.1021 11.8182H16.7462C17.4475 11.8182 18.1198 12.1057 18.6157 12.6172C19.1115 13.1287 19.3903 13.8221 19.3903 14.5455V17.2727C19.3903 17.996 19.1115 18.6895 18.6157 19.201C18.1198 19.7125 17.4475 20 16.7462 20C12.3048 20 8.04577 18.1798 4.90525 14.9405C1.76473 11.7013 0 7.30828 0 2.72727C0 2.00396 0.278777 1.31047 0.774649 0.799006C1.27052 0.287543 1.94287 1.35465e-08 2.64414 1.35465e-08H5.28827C5.98954 1.35465e-08 6.66189 0.287543 7.15776 0.799006C7.65363 1.31047 7.93241 2.00395 7.93241 2.72727V5.45455Z" fill="var(--fill-0, white)"/>
</g>
</svg>
