<svg preserveAspectRatio="none" width="100%" height="100%" overflow="visible" style="display: block;" viewBox="0 0 21 25.9381" fill="none" xmlns="http://www.w3.org/2000/svg">
<g id="icon">
<path id="Vector" d="M7 23.5801C8.78 23.5801 9.67 21.0334 8.42 19.5479C7.16 18.0741 5 19.1234 5 21.2221C5 21.8474 5.21071 22.4472 5.58579 22.8894C5.96086 23.3316 6.46957 23.5801 7 23.5801ZM5.5 17.6851H8.5C9.03043 17.6851 9.53914 17.4366 9.91421 16.9944C10.2893 16.5522 10.5 15.9524 10.5 15.327V8.84253H9V0H5V8.84253H3.5V15.327C3.5 15.9524 3.71071 16.5522 4.08579 16.9944C4.46086 17.4366 4.96957 17.6851 5.5 17.6851ZM21 16.5061H15V14.148H21M21 12.969H18V10.611H21M21 23.5801H15V21.2221H21M21 20.0431H18V17.6851H21M21 9.43203H15V7.07402H21M21 2.35801H15V0H21M21 5.89502H18V3.53701H21" fill="var(--fill-0, white)"/>
</g>
</svg>
