<svg width="36" height="36" viewBox="0 0 36 36" fill="none" xmlns="http://www.w3.org/2000/svg">
<path opacity="0.2" d="M34.7131 23.1165C34.7131 24.0371 34.4401 24.9369 33.9287 25.7023C33.4173 26.4676 32.6904 27.0642 31.84 27.4164C30.9896 27.7687 30.0538 27.8608 29.151 27.6813C28.2481 27.5017 27.4189 27.0584 26.768 26.4075C26.1171 25.7566 25.6738 24.9273 25.4942 24.0245C25.3146 23.1217 25.4068 22.1859 25.7591 21.3355C26.1113 20.4851 26.7079 19.7582 27.4732 19.2468C28.2386 18.7354 29.1384 18.4624 30.0589 18.4624C31.2933 18.4624 32.4771 18.9527 33.3499 19.8256C34.2227 20.6984 34.7131 21.8822 34.7131 23.1165Z" fill="#347694"/>
<path d="M31.8046 23.1166C31.8046 23.4618 31.7022 23.7992 31.5104 24.0862C31.3187 24.3732 31.0461 24.5969 30.7272 24.729C30.4083 24.8611 30.0573 24.8957 29.7188 24.8284C29.3802 24.761 29.0692 24.5948 28.8252 24.3507C28.5811 24.1066 28.4148 23.7956 28.3475 23.4571C28.2802 23.1185 28.3147 22.7676 28.4468 22.4487C28.5789 22.1298 28.8026 21.8572 29.0896 21.6654C29.3766 21.4736 29.7141 21.3713 30.0593 21.3713C30.5222 21.3713 30.9661 21.5552 31.2934 21.8825C31.6207 22.2098 31.8046 22.6537 31.8046 23.1166ZM31.1428 28.831C30.8872 30.4786 30.0514 31.9807 28.786 33.0663C27.5206 34.152 25.9089 34.7498 24.2416 34.7519H20.751C18.9 34.75 17.1254 34.0139 15.8166 32.7051C14.5078 31.3963 13.7717 29.6217 13.7698 27.7707V21.8789C11.5205 21.5955 9.45204 20.501 7.95246 18.8009C6.45287 17.1007 5.62528 14.9118 5.625 12.6448V5.66354C5.625 5.35495 5.74759 5.059 5.96579 4.84079C6.184 4.62259 6.47995 4.5 6.78854 4.5H10.2791C10.5877 4.5 10.8837 4.62259 11.1019 4.84079C11.3201 5.059 11.4427 5.35495 11.4427 5.66354C11.4427 5.97213 11.3201 6.26808 11.1019 6.48628C10.8837 6.70449 10.5877 6.82707 10.2791 6.82707H7.95207V12.6448C7.95199 13.5694 8.1356 14.4849 8.49225 15.338C8.84889 16.1912 9.37147 16.9649 10.0296 17.6144C10.6878 18.2639 11.4684 18.7762 12.3262 19.1215C13.184 19.4668 14.1018 19.6383 15.0264 19.626C18.8239 19.5765 21.9145 16.3899 21.9145 12.524V6.82707H19.5874C19.2788 6.82707 18.9829 6.70449 18.7647 6.48628C18.5465 6.26808 18.4239 5.97213 18.4239 5.66354C18.4239 5.35495 18.5465 5.059 18.7647 4.84079C18.9829 4.62259 19.2788 4.5 19.5874 4.5H23.078C23.3866 4.5 23.6826 4.62259 23.9008 4.84079C24.119 5.059 24.2416 5.35495 24.2416 5.66354V12.524C24.2416 17.3004 20.6739 21.2927 16.0968 21.8774V27.7707C16.0968 29.0051 16.5872 30.1889 17.46 31.0617C18.3328 31.9345 19.5166 32.4249 20.751 32.4249H24.2416C25.2985 32.4231 26.3235 32.0624 27.1485 31.4017C27.9735 30.7411 28.5495 29.8198 28.7823 28.7888C27.3771 28.4732 26.1389 27.6475 25.3073 26.4716C24.4758 25.2957 24.1099 23.8532 24.2806 22.4231C24.4513 20.993 25.1464 19.6771 26.2314 18.7299C27.3163 17.7828 28.714 17.2717 30.1541 17.2957C31.5941 17.3197 32.9741 17.8769 34.0269 18.8596C35.0798 19.8423 35.7307 21.1807 35.8537 22.6156C35.9768 24.0506 35.5631 25.4802 34.6929 26.6278C33.8227 27.7754 32.5577 28.5594 31.1428 28.8281V28.831ZM33.5499 23.1166C33.5499 22.4262 33.3452 21.7513 32.9616 21.1773C32.5781 20.6033 32.0329 20.1559 31.3951 19.8917C30.7572 19.6275 30.0554 19.5584 29.3783 19.693C28.7012 19.8277 28.0792 20.1602 27.591 20.6483C27.1029 21.1365 26.7704 21.7585 26.6357 22.4356C26.501 23.1127 26.5702 23.8146 26.8344 24.4524C27.0986 25.0902 27.546 25.6354 28.12 26.0189C28.694 26.4025 29.3689 26.6072 30.0593 26.6072C30.985 26.6072 31.8729 26.2394 32.5275 25.5848C33.1821 24.9302 33.5499 24.0424 33.5499 23.1166Z" fill="#347694"/>
</svg>
