<svg preserveAspectRatio="none" width="100%" height="100%" overflow="visible" style="display: block;" viewBox="0 0 24.5065 24.5065" fill="none" xmlns="http://www.w3.org/2000/svg">
<g id="navi_icon01">
<path id="Vector" d="M12.2533 14.2955C12.4552 14.2955 12.6526 14.2356 12.8205 14.1234C12.9885 14.0112 13.1193 13.8517 13.1966 13.6651C13.2739 13.4785 13.2941 13.2732 13.2547 13.0751C13.2153 12.8771 13.1181 12.6951 12.9753 12.5523C12.8325 12.4095 12.6505 12.3123 12.4525 12.2729C12.2544 12.2335 12.0491 12.2537 11.8625 12.331C11.6759 12.4083 11.5164 12.5391 11.4042 12.7071C11.292 12.875 11.2321 13.0724 11.2321 13.2744C11.2321 13.5452 11.3397 13.8049 11.5312 13.9964C11.7227 14.1879 11.9824 14.2955 12.2533 14.2955ZM17.3588 14.2955C17.5607 14.2955 17.7581 14.2356 17.9261 14.1234C18.094 14.0112 18.2249 13.8517 18.3022 13.6651C18.3794 13.4785 18.3997 13.2732 18.3603 13.0751C18.3209 12.8771 18.2236 12.6951 18.0808 12.5523C17.938 12.4095 17.7561 12.3123 17.558 12.2729C17.3599 12.2335 17.1546 12.2537 16.968 12.331C16.7814 12.4083 16.622 12.5391 16.5098 12.7071C16.3976 12.875 16.3377 13.0724 16.3377 13.2744C16.3377 13.5452 16.4452 13.8049 16.6367 13.9964C16.8282 14.1879 17.088 14.2955 17.3588 14.2955ZM12.2533 18.3799C12.4552 18.3799 12.6526 18.32 12.8205 18.2078C12.9885 18.0956 13.1193 17.9361 13.1966 17.7495C13.2739 17.563 13.2941 17.3576 13.2547 17.1596C13.2153 16.9615 13.1181 16.7795 12.9753 16.6367C12.8325 16.4939 12.6505 16.3967 12.4525 16.3573C12.2544 16.3179 12.0491 16.3381 11.8625 16.4154C11.6759 16.4927 11.5164 16.6236 11.4042 16.7915C11.292 16.9594 11.2321 17.1568 11.2321 17.3588C11.2321 17.6296 11.3397 17.8893 11.5312 18.0808C11.7227 18.2723 11.9824 18.3799 12.2533 18.3799ZM17.3588 18.3799C17.5607 18.3799 17.7581 18.32 17.9261 18.2078C18.094 18.0956 18.2249 17.9361 18.3022 17.7495C18.3794 17.563 18.3997 17.3576 18.3603 17.1596C18.3209 16.9615 18.2236 16.7795 18.0808 16.6367C17.938 16.4939 17.7561 16.3967 17.558 16.3573C17.3599 16.3179 17.1546 16.3381 16.968 16.4154C16.7814 16.4927 16.622 16.6236 16.5098 16.7915C16.3976 16.9594 16.3377 17.1568 16.3377 17.3588C16.3377 17.6296 16.4452 17.8893 16.6367 18.0808C16.8282 18.2723 17.088 18.3799 17.3588 18.3799ZM7.14773 14.2955C7.34969 14.2955 7.54711 14.2356 7.71503 14.1234C7.88295 14.0112 8.01382 13.8517 8.09111 13.6651C8.16839 13.4785 8.18861 13.2732 8.14921 13.0751C8.10982 12.8771 8.01256 12.6951 7.86976 12.5523C7.72696 12.4095 7.54501 12.3123 7.34694 12.2729C7.14886 12.2335 6.94355 12.2537 6.75697 12.331C6.57039 12.4083 6.41091 12.5391 6.29871 12.7071C6.18651 12.875 6.12663 13.0724 6.12663 13.2744C6.12663 13.5452 6.23421 13.8049 6.4257 13.9964C6.61719 14.1879 6.87692 14.2955 7.14773 14.2955ZM19.401 4.08442H18.3799V3.06331C18.3799 2.7925 18.2723 2.53278 18.0808 2.34128C17.8893 2.14979 17.6296 2.04221 17.3588 2.04221C17.088 2.04221 16.8282 2.14979 16.6367 2.34128C16.4452 2.53278 16.3377 2.7925 16.3377 3.06331V4.08442H8.16883V3.06331C8.16883 2.7925 8.06125 2.53278 7.86976 2.34128C7.67827 2.14979 7.41854 2.04221 7.14773 2.04221C6.87692 2.04221 6.61719 2.14979 6.4257 2.34128C6.23421 2.53278 6.12663 2.7925 6.12663 3.06331V4.08442H5.10552C4.29308 4.08442 3.51392 4.40716 2.93943 4.98164C2.36495 5.55612 2.04221 6.33529 2.04221 7.14773V19.401C2.04221 20.2134 2.36495 20.9926 2.93943 21.5671C3.51392 22.1416 4.29308 22.4643 5.10552 22.4643H19.401C20.2134 22.4643 20.9926 22.1416 21.5671 21.5671C22.1416 20.9926 22.4643 20.2134 22.4643 19.401V7.14773C22.4643 6.33529 22.1416 5.55612 21.5671 4.98164C20.9926 4.40716 20.2134 4.08442 19.401 4.08442ZM20.4221 19.401C20.4221 19.6718 20.3145 19.9315 20.123 20.123C19.9315 20.3145 19.6718 20.4221 19.401 20.4221H5.10552C4.83471 20.4221 4.57499 20.3145 4.38349 20.123C4.192 19.9315 4.08442 19.6718 4.08442 19.401V10.211H20.4221V19.401ZM20.4221 8.16883H4.08442V7.14773C4.08442 6.87692 4.192 6.61719 4.38349 6.4257C4.57499 6.23421 4.83471 6.12663 5.10552 6.12663H19.401C19.6718 6.12663 19.9315 6.23421 20.123 6.4257C20.3145 6.61719 20.4221 6.87692 20.4221 7.14773V8.16883ZM7.14773 18.3799C7.34969 18.3799 7.54711 18.32 7.71503 18.2078C7.88295 18.0956 8.01382 17.9361 8.09111 17.7495C8.16839 17.563 8.18861 17.3576 8.14921 17.1596C8.10982 16.9615 8.01256 16.7795 7.86976 16.6367C7.72696 16.4939 7.54501 16.3967 7.34694 16.3573C7.14886 16.3179 6.94355 16.3381 6.75697 16.4154C6.57039 16.4927 6.41091 16.6236 6.29871 16.7915C6.18651 16.9594 6.12663 17.1568 6.12663 17.3588C6.12663 17.6296 6.23421 17.8893 6.4257 18.0808C6.61719 18.2723 6.87692 18.3799 7.14773 18.3799Z" fill="var(--fill-0, white)"/>
</g>
</svg>
